<?xml version="1.0" encoding="UTF-8" standalone="no"?>
<!-- Created with Inkscape (http://www.inkscape.org/) -->

<svg
   xmlns:dc="http://purl.org/dc/elements/1.1/"
   xmlns:cc="http://creativecommons.org/ns#"
   xmlns:rdf="http://www.w3.org/1999/02/22-rdf-syntax-ns#"
   xmlns:svg="http://www.w3.org/2000/svg"
   xmlns="http://www.w3.org/2000/svg"
   xmlns:sodipodi="http://sodipodi.sourceforge.net/DTD/sodipodi-0.dtd"
   xmlns:inkscape="http://www.inkscape.org/namespaces/inkscape"
   width="38"
   height="38"
   id="svg3210"
   version="1.1"
   inkscape:version="0.48.4 r9939"
   sodipodi:docname="instagram.svg">
  <defs
     id="defs3212" />
  <sodipodi:namedview
     id="base"
     pagecolor="#ffffff"
     bordercolor="#666666"
     borderopacity="1.0"
     inkscape:pageopacity="0.0"
     inkscape:pageshadow="2"
     inkscape:zoom="7"
     inkscape:cx="-6.5714446"
     inkscape:cy="35.714272"
     inkscape:current-layer="layer1"
     showgrid="true"
     inkscape:grid-bbox="true"
     inkscape:document-units="px"
     inkscape:window-width="1366"
     inkscape:window-height="743"
     inkscape:window-x="0"
     inkscape:window-y="24"
     inkscape:window-maximized="1"
     fit-margin-top="0"
     fit-margin-left="0"
     fit-margin-right="0"
     fit-margin-bottom="0" />
  <metadata
     id="metadata3215">
    <rdf:RDF>
      <cc:Work
         rdf:about="">
        <dc:format>image/svg+xml</dc:format>
        <dc:type
           rdf:resource="http://purl.org/dc/dcmitype/StillImage" />
        <dc:title></dc:title>
      </cc:Work>
    </rdf:RDF>
  </metadata>
  <g
     id="layer1"
     inkscape:label="Layer 1"
     inkscape:groupmode="layer"
     transform="translate(-5.4285875,-4.5714146)">
    <path
       style="fill:#000000;fill-opacity:1;stroke:none"
       id="rect4122"
       d="m 11.752445,4.8638419 c -3.34733,0 -6.031458,2.6841279 -6.031458,6.0314591 l 0,25.352254 c 0,3.347331 2.684128,6.031461 6.031458,6.031461 l 25.352257,0 c 3.347329,0 6.031457,-2.68413 6.031457,-6.031461 l 0,-25.352254 c 0,-3.3473312 -2.684128,-6.0314591 -6.031457,-6.0314591 l -25.352257,0 z m 20.124981,4.201917 5.689678,0 c 0.753154,0 1.367139,0.613984 1.367139,1.3671381 l 0,5.689678 c 0,0.753143 -0.613985,1.367126 -1.367139,1.367126 l -5.689678,0 c -0.753143,0 -1.367125,-0.613983 -1.367125,-1.367126 l 0,-5.689678 c 0,-0.7531541 0.613982,-1.3671381 1.367125,-1.3671381 z m -7.4388,7.3784901 c 4.211971,0 7.579542,3.387677 7.579542,7.599649 0,4.21197 -3.367571,7.579529 -7.579542,7.579529 -4.211971,0 -7.619743,-3.367559 -7.619743,-7.579529 0,-4.211972 3.407772,-7.599649 7.619743,-7.599649 z m -15.6013779,4.624116 5.2071549,0 c -0.271865,0.945251 -0.4222,1.945638 -0.4222,2.975533 0,5.950448 4.865974,10.796316 10.816423,10.796316 5.95045,0 10.796317,-4.845856 10.796317,-10.796316 0,-1.030306 -0.171384,-2.029941 -0.442307,-2.975533 l 5.227261,0 0,14.656466 c 0,2.246128 -1.815046,4.061173 -4.061176,4.061173 l -23.080392,0 c -2.246143,0 -4.0410809,-1.815045 -4.0410809,-4.061173 l 0,-14.656466 z"
       inkscape:connector-curvature="0" />
  </g>
</svg>
