<svg xmlns="http://www.w3.org/2000/svg" xmlns:xlink="http://www.w3.org/1999/xlink" version="1.1" id="Layer_1" x="0px" y="0px" width="100px" height="100px" viewBox="0 0 100 100" enable-background="new 0 0 100 100" xml:space="preserve">
<path d="M97.71,11.744c-0.463-0.521-1.16-0.762-1.851-0.639L3.182,27.871c-0.771,0.14-1.39,0.717-1.583,1.476  c-0.193,0.76,0.076,1.562,0.687,2.052l21.825,17.512v31.954c0,0.76,0.43,1.453,1.11,1.791c0.681,0.34,1.494,0.261,2.098-0.197  l20.292-13.625l20.676,19.893c0.378,0.366,0.879,0.563,1.392,0.563c0.167,0,0.335-0.021,0.5-0.063  c0.675-0.175,1.21-0.688,1.413-1.354l26.537-74.217C98.332,12.99,98.174,12.265,97.71,11.744z M42.563,63.974l2.131,2.052  l-9.246,6.179L42.563,63.974z M40.906,59.211C40.594,59.5,28.111,74.714,28.111,74.714V47.952c0-0.008-0.002-0.017-0.003-0.025  l60.644-29.281C88.752,18.646,41.218,58.922,40.906,59.211z M8.212,31.026l80.439-14.552L27.109,46.189L8.212,31.026z M68.72,83.577  l-19.559-18.81c-0.011-0.011-0.024-0.018-0.036-0.028l-5.422-5.22L92.59,18.112L68.72,83.577z"/>
</svg>