<svg xmlns="http://www.w3.org/2000/svg" xmlns:xlink="http://www.w3.org/1999/xlink" version="1.1" id="Glyphs_-_Office" x="0px" y="0px" viewBox="0 0 40 40" enable-background="new 0 0 40 40" xml:space="preserve" height="100px" width="100px">
<path id="Timer_1_" fill-rule="evenodd" clip-rule="evenodd" d="M25.3,16l-4.2,4.2c-0.8-0.5-1.8-0.4-2.5,0.3c-0.8,0.8-0.8,2.1,0,2.9  s2.1,0.8,2.9,0c0.7-0.7,0.8-1.7,0.3-2.5l4.2-4.2L25.3,16z M20.1,23c-0.6,0-1-0.4-1-1c0-0.6,0.4-1,1-1c0.6,0,1,0.4,1,1  C21.1,22.5,20.6,23,20.1,23z M22.1,9.2V8h1V5h-6v3h1v1.2c-2.3,0.3-4.4,1.3-6.1,2.7l-0.7-0.7l0.5-0.5L10.2,9l-3.1,3.2l1.6,1.6  l0.5-0.5l0.7,0.7c-1.8,2.2-2.8,5-2.8,8.1c0,7.2,5.8,13,12.9,13s12.9-5.8,12.9-13C32.9,15.5,28.2,10.2,22.1,9.2z M20.1,33  c-6.1,0-11-4.9-11-11c0-6.1,4.9-11,11-11s11,4.9,11,11C31.1,28.1,26.1,33,20.1,33z"/>
</svg>